{"title":"Quarantine - AVM","uid":5045243,"size":233386097,"categoryP":"video","categoryS":"handheld","magnet":"?xt=urn:btih:450aeda2d52e663d5e88296bc65bf3b01123ead6&amp;dn=Quarantine+-+AVM&amp;tr=udp%3A%2F%2Ftracker.openbittorrent.com%3A80&amp;tr=udp%3A%2F%2Fopen.demonii.com%3A1337&amp;tr=udp%3A%2F%2Ftracker.coppersurfer.tk%3A6969&amp;tr=udp%3A%2F%2Fexodus.desync.com%3A6969","seeders":0,"leechers":0,"uploader":"AVIDM","files":1,"time":1249593407,"description":"AVIDMobile - http://www.avidmobile.com.ar (Mobile media)\n\nVideo\nID                               : 1\nFormat                           : MPEG-4 Visual\nFormat profile                   : Advanced Simple@L5\nFormat settings, BVOP            : Yes\nFormat settings, QPel            : No\nFormat settings, GMC             : No warppoints\nFormat settings, Matrix          : Default (H.263)\nCodec ID                         : 20\nDuration                         : 1h 29mn\nBit rate mode                    : Variable\nBit rate                         : 283 Kbps\nMaximum bit rate                 : 848 Kbps\nWidth                            : 320 pixels\nHeight                           : 240 pixels\nDisplay aspect ratio             : 4/3\nFrame rate mode                  : Variable\nFrame rate                       : 23.976 fps\nMinimum frame rate               : 23.974 fps\nMaximum frame rate               : 23.981 fps\nResolution                       : 24 bits\nColorimetry                      : 4:2:0\nScan type                        : Progressive\nBits/(Pixel*Frame)               : 0.153\nStream size                      : 180 MiB (81%)\n\nAudio\nID                               : 2\nFormat                           : AAC\nFormat/Info                      : Advanced Audio Codec\nFormat version                   : Version 4\nFormat profile                   : LC\nFormat settings, SBR             : No\nCodec ID                         : 40\nDuration                         : 1h 29mn\nBit rate mode                    : Variable\nBit rate                         : 62.8 Kbps\nMaximum bit rate                 : 123 Kbps\nChannel(s)                       : 2 channels\nChannel positions                : L R\nSampling rate                    : 22.05 KHz\nResolution                       : 16 bits\nStream size                      : 40.1 MiB (18%)","torrent":{"xt":"urn:btih:450aeda2d52e663d5e88296bc65bf3b01123ead6","amp;dn":"Quarantine+-+AVM","amp;tr":["udp%3A%2F%2Ftracker.openbittorrent.com%3A80","udp%3A%2F%2Fopen.demonii.com%3A1337","udp%3A%2F%2Ftracker.coppersurfer.tk%3A6969","udp%3A%2F%2Fexodus.desync.com%3A6969"],"infoHash":"450aeda2d52e663d5e88296bc65bf3b01123ead6","infoHashBuffer":{"type":"Buffer","data":[69,10,237,162,213,46,102,61,94,136,41,107,198,91,243,176,17,35,234,214]},"announce":[],"urlList":[]}}